<svg width="21" height="21" viewBox="0 0 21 21" fill="none" xmlns="http://www.w3.org/2000/svg">
<g clip-path="url(#clip0_115520_54)">
<path d="M10.7789 12.0848C10.1902 11.6688 9.06675 10.6568 9.06675 10.0616C9.06675 9.36469 9.26559 9.02081 10.3149 8.20116C11.3899 7.3605 12.1518 5.98303 12.1518 4.60753C12.1518 2.97216 11.422 1.96875 10.0544 0.65625H12.1177L13.5732 0C13.5732 0 8.69466 0 7.06781 0C4.15078 0 1.407 2.20631 1.407 4.76503C1.407 7.38084 3.39478 9.49069 6.36234 9.49069C6.56841 9.49069 6.76856 9.48544 6.96544 9.47231C6.7725 9.83981 6.63534 10.2546 6.63534 10.6857C6.63534 11.4128 7.02647 12.0022 7.51997 12.4838C7.14787 12.4838 6.78628 12.4943 6.39319 12.4943C2.77922 12.4937 0 14.7938 0 17.18C0 19.5287 3.04828 21 6.65962 21C10.7782 21 13.0522 18.6624 13.0522 16.3131C13.0528 14.429 12.4963 13.3015 10.7789 12.0848ZM7.30341 8.82525C5.62669 8.77537 4.03462 6.95034 3.74522 4.75059C3.45647 2.54887 4.57997 0.864281 6.25472 0.914156C7.93078 0.965344 9.5235 2.73066 9.81356 4.93172C10.103 7.13344 8.97816 8.87512 7.30341 8.82525ZM6.6465 19.9598C4.14947 19.9598 2.34609 18.3803 2.34609 16.4811C2.34609 14.6213 4.58259 13.0718 7.08028 13.0987C7.66303 13.1053 8.20575 13.1985 8.69794 13.358C10.0537 14.3017 11.0263 14.8345 11.3019 15.9075C11.3518 16.1254 11.3813 16.3505 11.3813 16.5788C11.3813 18.4767 10.1574 19.9598 6.6465 19.9598Z" fill="white"/>
<path d="M17.7188 9.1875V5.90625H16.4062V9.1875H13.125V10.5H16.4062V13.7812H17.7188V10.5H21V9.1875H17.7188Z" fill="white"/>
</g>
<defs>
<clipPath id="clip0_115520_54">
<rect width="21" height="21" fill="white"/>
</clipPath>
</defs>
</svg>
