<svg width="32" height="32" viewBox="0 0 32 32" fill="none" xmlns="http://www.w3.org/2000/svg">
<path d="M3.4279 1.1926L30.1909 14.7684C31.2697 15.3157 31.2697 16.6843 30.1909 17.2316L3.4279 30.8074C2.34906 31.3547 1 30.6704 1 29.5758V2.42417C1 1.32958 2.34837 0.645304 3.4279 1.1926Z" fill="#3F4B3D"/>
<path d="M30.1909 14.7684L3.42789 1.19259C3.26645 1.11101 3.09946 1.06474 2.93178 1.03491L28.8051 14.1596C29.8839 14.7069 29.8839 16.0755 28.8051 16.6228L2.0421 30.1986C1.80029 30.321 1.54599 30.3739 1.29517 30.3819C1.7497 30.9529 2.65393 31.1994 3.42789 30.8074L30.1909 17.2316C31.2697 16.6843 31.2697 15.3157 30.1909 14.7684Z" fill="#3F4B3D"/>
<path d="M3.4279 1.1926L30.1909 14.7684C31.2697 15.3157 31.2697 16.6843 30.1909 17.2316L3.4279 30.8074C2.34906 31.3547 1 30.6704 1 29.5758V2.42417C1 1.32958 2.34837 0.645304 3.4279 1.1926Z" fill="#3F4B3D" stroke="black" stroke-miterlimit="10"/>
</svg>
