<svg width="21" height="21" viewBox="0 0 21 21" fill="none" xmlns="http://www.w3.org/2000/svg">
<path d="M4.69615 6.5625H0V21.0001H4.69615V6.5625Z" fill="#FEFEFE"/>
<path d="M17.4876 6.73182C17.4378 6.71624 17.3905 6.69921 17.3382 6.68451C17.2749 6.67016 17.2121 6.65817 17.1477 6.64795C16.8986 6.59796 16.6252 6.56254 16.3051 6.56254C13.5674 6.56254 11.8307 8.55379 11.2588 9.32278V6.5625H6.56256V21.0001H11.2587V13.1251C11.2587 13.1251 14.8075 8.18216 16.3051 11.8124V21.0001H21V11.2574C21 9.07587 19.5049 7.25811 17.4876 6.73182Z" fill="#FEFEFE"/>
<path d="M4.5939 2.29683C4.5939 3.56557 3.56534 4.59376 2.297 4.59376C1.02857 4.59376 6.10352e-05 3.56552 6.10352e-05 2.29683C6.10352e-05 1.02836 1.02857 0 2.297 0C3.56534 0 4.5939 1.02836 4.5939 2.29683Z" fill="#FEFEFE"/>
</svg>
